<svg id="Layer_1" data-name="Layer 1" xmlns="http://www.w3.org/2000/svg" viewBox="0 0 719 720"><defs><style>.cls-1{fill:#00538e;}.cls-2{fill:#fff;}</style></defs><title>Artboard 1</title><rect class="cls-1" x="0.17" width="718.66" height="720"/><path class="cls-2" d="M434.76,531.14c0,50.52-39.67,71.61-85.42,70.14-16.24-.53-32.06-4.63-49.29-10.26L304,554.66c14.58,6,33.49,12.51,49.31,12.27,20.68-.32,41.34-9.92,41.34-33.86,0-18.44-14.76-27.51-29-34.73-31.56-16-67.86-27.13-67.86-71.86,0-42.29,33.63-64.35,75.32-64.35a156.79,156.79,0,0,1,51.41,9.07L419,407c-19.77-7.76-28.42-10.51-44.66-10.51-18,0-36.47,6.32-36.47,27.07,0,16.21,16.64,24.63,29,30.81,33.53,16.73,67.88,30.47,67.88,76.76"/><path class="cls-2" d="M246.52,590.43c-14.55,5-36.83,10.86-72.38,10.86-72.95,0-121.77-47.15-121.77-120.55,0-71.22,51.83-118.61,122.1-118.61,33.37,0,48.25,5,69.33,12.23l-3.17,39.89c-19.4-12.68-35.92-17.75-64.54-17.75-50.25,0-83.8,36.37-83.56,85.2.24,52.55,36.75,85.22,81.94,85.22,13.47,0,24.92-1,33.15-3.15V503.91H164.16V470.17h82.36V590.43"/><polyline class="cls-2" points="564.29 357.06 619.69 480.51 581.09 480.51 564.29 439.49 547.45 480.51 508.85 480.51 564.29 357.06"/><polyline class="cls-2" points="620.33 481.95 671.9 597.22 631.37 597.22 592.82 507.72 620.33 481.95"/><polyline class="cls-2" points="508.22 481.98 535.72 507.73 515.4 554.16 564.21 528.57 592.3 550.21 496.21 597.23 456.64 597.23 508.22 481.98"/></svg>